<?xml version="1.0" encoding="us-ascii" standalone="no"?><svg xmlns="http://www.w3.org/2000/svg" xmlns:xlink="http://www.w3.org/1999/xlink" contentStyleType="text/css" height="825px" preserveAspectRatio="none" style="width:1744px;height:825px;background:#FFFFFF;" version="1.1" viewBox="0 0 1744 825" width="1744px" zoomAndPan="magnify"><defs/><g><!--cluster applicationSystem--><g id="cluster_applicationSystem"><rect fill="none" height="812" rx="2.5" ry="2.5" style="stroke:#181818;stroke-width:1.0;" width="1579.74" x="84" y="7"/><text fill="#000000" font-family="sans-serif" font-size="14" font-weight="bold" lengthAdjust="spacing" textLength="139" x="804.37" y="22.5352">Application System</text></g><!--cluster adminOptions--><g id="cluster_adminOptions"><rect fill="none" height="480" rx="2.5" ry="2.5" style="stroke:#181818;stroke-width:1.0;" width="1531.74" x="108" y="315"/><text fill="#000000" font-family="sans-serif" font-size="14" font-weight="bold" lengthAdjust="spacing" textLength="110" x="818.87" y="330.5352">Admin Options</text></g><!--cluster userOptions--><g id="cluster_userOptions"><rect fill="none" height="255" rx="2.5" ry="2.5" style="stroke:#181818;stroke-width:1.0;" width="846.13" x="761.61" y="366"/><text fill="#000000" font-family="sans-serif" font-size="14" font-weight="bold" lengthAdjust="spacing" textLength="95" x="1137.175" y="381.5352">User Options</text></g><g id="elem_mainMenu"><ellipse cx="196.9425" cy="206.9965" fill="#F1F1F1" rx="63.4325" ry="15.0865" style="stroke:#181818;stroke-width:0.5;"/><text fill="#000000" font-family="sans-serif" font-size="14" lengthAdjust="spacing" textLength="75" x="156.4425" y="211.0141">Main Menu</text></g><g id="elem_register"><ellipse cx="850.0574" cy="135.0036" fill="#F1F1F1" rx="51.2674" ry="14.7036" style="stroke:#181818;stroke-width:0.5;"/><text fill="#000000" font-family="sans-serif" font-size="14" lengthAdjust="spacing" textLength="56" x="819.0793" y="139.0167">Register</text></g><g id="elem_login"><ellipse cx="850.0553" cy="263.999" fill="#F1F1F1" rx="38.3553" ry="14.659" style="stroke:#181818;stroke-width:0.5;"/><text fill="#000000" font-family="sans-serif" font-size="14" lengthAdjust="spacing" textLength="38" x="831.0553" y="267.29">Login</text></g><g id="elem_exit"><ellipse cx="850.0601" cy="199.999" fill="#F1F1F1" rx="29.8701" ry="14.659" style="stroke:#181818;stroke-width:0.5;"/><text fill="#000000" font-family="sans-serif" font-size="14" lengthAdjust="spacing" textLength="26" x="837.0601" y="203.29">Exit</text></g><g id="elem_adminLogin"><ellipse cx="196.9445" cy="278.0029" fill="#F1F1F1" rx="91.6645" ry="20.7329" style="stroke:#181818;stroke-width:0.5;"/><text fill="#000000" font-family="sans-serif" font-size="14" lengthAdjust="spacing" textLength="145" x="124.4445" y="281.2939">Admin Options Menu</text></g><g id="elem_organInfo"><ellipse cx="196.9423" cy="135.0045" fill="#F1F1F1" rx="95.6723" ry="21.5345" style="stroke:#181818;stroke-width:0.5;"/><text fill="#000000" font-family="sans-serif" font-size="14" lengthAdjust="spacing" textLength="154" x="119.9423" y="138.2955">Organizer Information</text></g><g id="elem_userInfo"><ellipse cx="196.9359" cy="59.9952" fill="#F1F1F1" rx="79.1259" ry="18.2252" style="stroke:#181818;stroke-width:0.5;"/><text fill="#000000" font-family="sans-serif" font-size="14" lengthAdjust="spacing" textLength="116" x="138.9359" y="63.2862">User Information</text></g><g id="elem_manEvent"><ellipse cx="196.9418" cy="743.9964" fill="#F1F1F1" rx="70.5818" ry="16.5164" style="stroke:#181818;stroke-width:0.5;"/><text fill="#000000" font-family="sans-serif" font-size="14" lengthAdjust="spacing" textLength="95" x="147.9584" y="747.6724">Manage Event</text></g><g id="elem_manVenue"><ellipse cx="196.9404" cy="674.9981" fill="#F1F1F1" rx="72.9404" ry="16.9881" style="stroke:#181818;stroke-width:0.5;"/><text fill="#000000" font-family="sans-serif" font-size="14" lengthAdjust="spacing" textLength="101" x="146.1341" y="678.3731">Manage Venue</text></g><g id="elem_manUsers"><ellipse cx="196.9377" cy="606.0035" fill="#F1F1F1" rx="70.9677" ry="16.5935" style="stroke:#181818;stroke-width:0.5;"/><text fill="#000000" font-family="sans-serif" font-size="14" lengthAdjust="spacing" textLength="96" x="147.656" y="609.6304">Manage Users</text></g><g id="elem_venueOptions"><ellipse cx="850.0604" cy="674.9981" fill="#F1F1F1" rx="72.9404" ry="16.9881" style="stroke:#181818;stroke-width:0.5;"/><text fill="#000000" font-family="sans-serif" font-size="14" lengthAdjust="spacing" textLength="101" x="799.2541" y="678.3731">Venue Options</text></g><g id="elem_eventOptions"><ellipse cx="850.0618" cy="743.9964" fill="#F1F1F1" rx="70.5818" ry="16.5164" style="stroke:#181818;stroke-width:0.5;"/><text fill="#000000" font-family="sans-serif" font-size="14" lengthAdjust="spacing" textLength="95" x="801.0784" y="747.6724">Event Options</text></g><g id="elem_logger"><ellipse cx="1485.3708" cy="687.0022" fill="#F1F1F1" rx="62.1108" ry="14.8222" style="stroke:#181818;stroke-width:0.5;"/><text fill="#000000" font-family="sans-serif" font-size="14" lengthAdjust="spacing" textLength="71" x="1446.8708" y="691.0197">Log action</text></g><g id="elem_addUser"><ellipse cx="850.0649" cy="425.9973" fill="#F1F1F1" rx="56.4349" ry="14.7473" style="stroke:#181818;stroke-width:0.5;"/><text fill="#000000" font-family="sans-serif" font-size="14" lengthAdjust="spacing" textLength="63" x="815.5649" y="430.0149">Add User</text></g><g id="elem_viewUser"><ellipse cx="850.0582" cy="562.9989" fill="#F1F1F1" rx="59.3882" ry="14.7689" style="stroke:#181818;stroke-width:0.5;"/><text fill="#000000" font-family="sans-serif" font-size="14" lengthAdjust="spacing" textLength="67" x="813.5582" y="567.0165">View User</text></g><g id="elem_deleteUser"><ellipse cx="850.0578" cy="497.9996" fill="#F1F1F1" rx="64.4478" ry="15.2896" style="stroke:#181818;stroke-width:0.5;"/><text fill="#000000" font-family="sans-serif" font-size="14" lengthAdjust="spacing" textLength="78" x="808.0578" y="502.0171">Delete User</text></g><g id="elem_updateUser"><ellipse cx="1485.3661" cy="572.9972" fill="#F1F1F1" rx="66.5361" ry="15.7072" style="stroke:#181818;stroke-width:0.5;"/><text fill="#000000" font-family="sans-serif" font-size="14" lengthAdjust="spacing" textLength="84" x="1440.3661" y="577.0148">Update User</text></g><g id="elem_regAdmin"><ellipse cx="1485.3739" cy="426.0028" fill="#F1F1F1" rx="74.5639" ry="17.3128" style="stroke:#181818;stroke-width:0.5;"/><text fill="#000000" font-family="sans-serif" font-size="14" lengthAdjust="spacing" textLength="105" x="1432.8739" y="429.2938">Register Admin</text></g><g id="elem_return"><ellipse cx="1485.3685" cy="500.0037" fill="#F1F1F1" rx="98.3685" ry="22.0737" style="stroke:#181818;stroke-width:0.5;"/><text fill="#000000" font-family="sans-serif" font-size="14" lengthAdjust="spacing" textLength="160" x="1405.3685" y="503.2947">Return to Admin Rights</text></g><!--entity user--><g id="elem_user"><ellipse cx="21.5" cy="177.26" fill="#F1F1F1" rx="8" ry="8" style="stroke:#181818;stroke-width:0.5;"/><path d="M21.5,185.26 L21.5,212.26 M8.5,193.26 L34.5,193.26 M21.5,212.26 L8.5,227.26 M21.5,212.26 L34.5,227.26 " fill="none" style="stroke:#181818;stroke-width:0.5;"/><text fill="#000000" font-family="sans-serif" font-size="14" lengthAdjust="spacing" textLength="31" x="6" y="242.2952">User</text></g><!--entity CSV--><g id="elem_CSV"><ellipse cx="1724.24" cy="657.26" fill="#F1F1F1" rx="8" ry="8" style="stroke:#181818;stroke-width:0.5;"/><path d="M1724.24,665.26 L1724.24,692.26 M1711.24,673.26 L1737.24,673.26 M1724.24,692.26 L1711.24,707.26 M1724.24,692.26 L1737.24,707.26 " fill="none" style="stroke:#181818;stroke-width:0.5;"/><text fill="#000000" font-family="sans-serif" font-size="14" lengthAdjust="spacing" textLength="27" x="1710.74" y="722.2952">CSV</text></g><!--link mainMenu to login--><g id="link_mainMenu_login"><path d="M259.33,209.97 C380.55,216.01 646.72,230.13 737.61,242 C764.4,245.5 788.5808,250.258 810.7108,255.138 " fill="none" id="mainMenu-to-login" style="stroke:#181818;stroke-width:1.0;"/><polygon fill="#181818" points="816.57,256.43,808.6425,250.5858,811.6873,255.3533,806.9198,258.3981,816.57,256.43" style="stroke:#181818;stroke-width:1.0;"/></g><!--link mainMenu to register--><g id="link_mainMenu_register"><path d="M255.15,200.67 C381.92,186.66 678.5063,153.8593 795.6363,140.9093 " fill="none" id="mainMenu-to-register" style="stroke:#181818;stroke-width:1.0;"/><polygon fill="#181818" points="801.6,140.25,792.2149,137.2632,796.6303,140.7995,793.0941,145.2148,801.6,140.25" style="stroke:#181818;stroke-width:1.0;"/></g><!--link mainMenu to exit--><g id="link_mainMenu_exit"><path d="M260.67,206.33 C398.04,204.85 715.0804,201.445 813.8604,200.375 " fill="none" id="mainMenu-to-exit" style="stroke:#181818;stroke-width:1.0;"/><polygon fill="#181818" points="819.86,200.31,810.8172,196.4077,814.8603,200.3642,810.9039,204.4072,819.86,200.31" style="stroke:#181818;stroke-width:1.0;"/></g><!--link adminLogin to login--><g id="link_adminLogin_login"><path d="M288.48,276.05 C433.32,272.94 705.0514,267.0989 805.5714,264.9389 " fill="none" id="adminLogin-to-login" style="stroke:#181818;stroke-width:1.0;"/><polygon fill="#181818" points="811.57,264.81,802.4861,261.0043,806.5712,264.9174,802.658,269.0024,811.57,264.81" style="stroke:#181818;stroke-width:1.0;"/><text fill="#000000" font-family="sans-serif" font-size="13" lengthAdjust="spacing" textLength="174" x="443.11" y="263.2484">&#171;extends&#187; [if user is admin]</text></g><!--link organInfo to register--><g id="link_organInfo_register"><path d="M292.97,135 C432.92,135 683.61,135 792.3,135 " fill="none" id="organInfo-to-register" style="stroke:#181818;stroke-width:1.0;"/><polygon fill="#181818" points="798.3,135,789.3,131,793.3,135,789.3,139,798.3,135" style="stroke:#181818;stroke-width:1.0;"/><text fill="#000000" font-family="sans-serif" font-size="13" lengthAdjust="spacing" textLength="413" x="323.61" y="131.5684">&#171;extends&#187; [If registering as a organizer, provide organizer details]</text></g><!--link userInfo to register--><g id="link_userInfo_register"><path d="M274.29,63.98 C379.19,70.15 573.57,84.11 737.61,110 C762.19,113.88 783.6295,118.5439 805.0395,123.7439 " fill="none" id="userInfo-to-register" style="stroke:#181818;stroke-width:1.0;"/><polygon fill="#181818" points="810.87,125.16,803.0683,119.1489,806.0113,123.9799,801.1802,126.9229,810.87,125.16" style="stroke:#181818;stroke-width:1.0;"/><text fill="#000000" font-family="sans-serif" font-size="13" lengthAdjust="spacing" textLength="388" x="336.11" y="64.0984">&lt;&lt;extends&gt; [If user is selected, provide user details to enter]</text></g><!--reverse link addUser to regAdmin--><g id="link_addUser_regAdmin"><path d="M912.98,426 C1027.4,426 1282.19,426 1410.41,426 " fill="none" id="addUser-backto-regAdmin" style="stroke:#181818;stroke-width:1.0;stroke-dasharray:7.0,7.0;"/><polygon fill="#181818" points="906.98,426,915.98,430,911.98,426,915.98,422,906.98,426" style="stroke:#181818;stroke-width:1.0;"/><text fill="#000000" font-family="sans-serif" font-size="13" lengthAdjust="spacing" textLength="402" x="954" y="422.5684">&#171;extend&#187; [Admin can only register admin with organizer details]</text></g><!--link manUsers to userOptions--><g id="link_manUsers_userOptions"><path d="M263.23,612.23 C282.35,613.78 303.3,615.23 322.61,616 C438.595,620.645 569.065,619.9425 671.1038,618.055 C696.6134,617.5831 720.3462,617.0372 741.6314,616.4822 C746.9527,616.3435 752.121,616.2042 757.1259,616.0653 C758.3771,616.0306 753.6205,616.1648 754.8511,616.1301 " fill="none" id="manUsers-to-userOptions" style="stroke:#181818;stroke-width:1.0;"/><polygon fill="#181818" points="760.8488,615.9613,751.7398,612.2161,755.8507,616.102,751.9649,620.2129,760.8488,615.9613" style="stroke:#181818;stroke-width:1.0;"/><text fill="#000000" font-family="sans-serif" font-size="13" lengthAdjust="spacing" textLength="60" x="500.11" y="612.5684">&#171;include&#187;</text></g><!--link manVenue to venueOptions--><g id="link_manVenue_venueOptions"><path d="M270.11,675 C395.43,675 645.86,675 771.07,675 " fill="none" id="manVenue-to-venueOptions" style="stroke:#181818;stroke-width:1.0;"/><polygon fill="#181818" points="777.07,675,768.07,671,772.07,675,768.07,679,777.07,675" style="stroke:#181818;stroke-width:1.0;"/><text fill="#000000" font-family="sans-serif" font-size="13" lengthAdjust="spacing" textLength="60" x="500.11" y="671.5684">&#171;include&#187;</text></g><!--link manEvent to eventOptions--><g id="link_manEvent_eventOptions"><path d="M267.93,744 C393.24,744 648.45,744 773.47,744 " fill="none" id="manEvent-to-eventOptions" style="stroke:#181818;stroke-width:1.0;"/><polygon fill="#181818" points="779.47,744,770.47,740,774.47,744,770.47,748,779.47,744" style="stroke:#181818;stroke-width:1.0;"/><text fill="#000000" font-family="sans-serif" font-size="13" lengthAdjust="spacing" textLength="60" x="500.11" y="740.5684">&#171;include&#187;</text></g><!--link userOptions to logger--><g id="link_userOptions_logger"><path d="M946.6566,621.0065 C946.7377,621.0206 946.8191,621.0346 946.901,621.0487 C947.0647,621.0768 947.2301,621.105 947.3971,621.1333 C947.7313,621.1898 948.0722,621.2466 948.4207,621.3036 C949.8144,621.5317 951.3275,621.7638 953,622 C1131.99,647.31 1177.72,645.91 1357,669 C1381.59,672.17 1402.8611,675.1157 1425.8011,678.4157 " fill="none" id="userOptions-to-logger" style="stroke:#181818;stroke-width:1.0;"/><polygon fill="#181818" points="1431.74,679.27,1423.4013,674.0293,1426.7909,678.5581,1422.2622,681.9478,1431.74,679.27" style="stroke:#181818;stroke-width:1.0;"/><text fill="#000000" font-family="sans-serif" font-size="13" lengthAdjust="spacing" textLength="60" x="1125" y="618.5684">&#171;include&#187;</text></g><!--link venueOptions to logger--><g id="link_venueOptions_logger"><path d="M909.66,685.12 C923.8,687.15 938.91,688.97 953,690 C1132.08,703.1 1177.46,692.11 1357,690 C1378.68,689.74 1396.4218,689.3981 1417.4818,688.8781 " fill="none" id="venueOptions-to-logger" style="stroke:#181818;stroke-width:1.0;"/><polygon fill="#181818" points="1423.48,688.73,1414.384,684.9534,1418.4815,688.8534,1414.5815,692.9509,1423.48,688.73" style="stroke:#181818;stroke-width:1.0;"/><text fill="#000000" font-family="sans-serif" font-size="13" lengthAdjust="spacing" textLength="60" x="1125" y="686.5684">&#171;include&#187;</text></g><!--link eventOptions to logger--><g id="link_eventOptions_logger"><path d="M920.68,745.55 C1018.66,746.66 1202.54,744.84 1357,721 C1387.99,716.22 1416.5527,708.576 1441.7427,700.866 " fill="none" id="eventOptions-to-logger" style="stroke:#181818;stroke-width:1.0;"/><polygon fill="#181818" points="1447.48,699.11,1437.7034,697.9192,1442.6989,700.5734,1440.0448,705.5689,1447.48,699.11" style="stroke:#181818;stroke-width:1.0;"/><text fill="#000000" font-family="sans-serif" font-size="13" lengthAdjust="spacing" textLength="60" x="1125" y="717.5684">&#171;include&#187;</text></g><!--link logger to CSV--><g id="link_logger_CSV"><path d="M1547.68,687 C1603.06,687 1674.35,687 1704.49,687 " fill="none" id="logger-to-CSV" style="stroke:#181818;stroke-width:1.0;"/><polygon fill="#181818" points="1710.49,687,1701.49,683,1705.49,687,1701.49,691,1710.49,687" style="stroke:#181818;stroke-width:1.0;"/></g><!--link user to mainMenu--><g id="link_user_mainMenu"><path d="M37.29,207 C58.42,207 92.54,207 127.15,207 " fill="none" id="user-to-mainMenu" style="stroke:#181818;stroke-width:1.0;"/><polygon fill="#181818" points="133.15,207,124.15,203,128.15,207,124.15,211,133.15,207" style="stroke:#181818;stroke-width:1.0;"/></g><!--SRC=[VLLDRniX4BtpAqPxJl83AijIrEOGAL6aHF6byW4jumtIcbq1Tf9M_Uzb1bZ0jdnPCyDZFjuyy8Wx3tu2guSF3qfRxBsUZ92zdonqxmvj1zB18Iooy-VRXdtXLmWw8Cqm8iXv7dKlwVZRj_Eu9qntNxmGtTrV8O02zj8XTCzI6tX6S-2O-s2H0JNa5GSTJiPAR39gmDCqQCEx8wsQmmzVslCMXWLbNbBStguZ_jHPfMZyEK8T_bxjGyANcHfqfGz9xgSKl1Wb9_o0rGg_F1hbrcluhNVCCUXqTjkGz687QVIViFzeTfFTCv-SQA8TSWRuicwwECtqk5ksj1cus7YIuj_0RAUZLbXSeD1BFRejD2MHDCwgeHQuW8YqrulXMdBN3iSW9LIb0jv9oKcZQ4A0RUI_aXsnbVbdnTKJ2M83QDHcv83mS0p1ak0C6nTXcp1Ep30sBiA82fTXR32CFgLEwgOka_bhggmqfM2vUL8fMZU0ZSRFWZW6wmpoAz3fiO0KssUmzrd96dPW-moMRo0mkVaUid62ymThQ5Xn2g_qhBY4fosHU4bTmUhkRebKQODq6dszD32PyRieY0SEdzf_ND1eZlzFj8JHx1QscJJo94S3PJKqK2HFXX8sJvcLNS-L6j2c7myAGmUnagmS1jTPMtI2nkpys5HPJmBd9dFDuK4PY1Z7Bo58ViAxpC1INNfxXdGBczHDOTU0JLbNW2BEG8HFGX2O_ZBuMfEHtrRn7m00]--></g></svg>